<?xml version="1.0" encoding="UTF-8"?>
<svg version="1.1" xmlns="http://www.w3.org/2000/svg" viewBox="0 0 512 512" width="100%" height="100%">
<path d="M0 0 C0.85207031 0.78117187 1.70414062 1.56234375 2.58203125 2.3671875 C3.50628906 3.21023437 4.43054688 4.05328125 5.3828125 4.921875 C23.67976797 22.38369972 34.92915947 46.09036735 35.67442703 71.51984978 C35.71216446 75.43195781 35.71736461 79.3433984 35.71142578 83.25561523 C35.71278285 84.75988304 35.71456449 86.26415051 35.71673584 87.76841736 C35.72128362 91.84441787 35.71952892 95.92039298 35.71635675 99.99639392 C35.7138078 104.29976639 35.71617878 108.60313683 35.71774292 112.9065094 C35.71956214 120.15862411 35.7171699 127.41072864 35.71240234 134.6628418 C35.70701154 142.95684023 35.70868515 151.25081388 35.71422875 159.54481167 C35.71882909 166.72335085 35.71937575 173.90188275 35.71679008 181.08042294 C35.71525805 185.34084002 35.71494508 189.60124564 35.71832657 193.86166191 C35.72930456 210.10993914 35.67740659 226.35510971 35.25468421 242.59877598 C35.21792615 244.0275511 35.18389528 245.45639949 35.15284562 246.88531005 C35.10851616 248.85155672 35.05025327 250.81747418 34.99142456 252.78334045 C34.94556119 254.44407892 34.94556119 254.44407892 34.89877129 256.13836765 C34.46083299 260.60267181 33.97191165 264.96549229 30.7331543 268.23178101 C20.84643508 273.45019249 7.12236476 271.69515482 -3.73046875 271.703125 C-5.79264415 271.70955981 -7.85481866 271.71628867 -9.91699219 271.72329712 C-14.21698122 271.73521479 -18.51689017 271.73898294 -22.81689453 271.73779297 C-28.33294778 271.73758848 -33.84849333 271.7650487 -39.36442566 271.79933739 C-43.6125527 271.82152286 -47.86055507 271.82563332 -52.10873413 271.82457352 C-54.143766 271.826936 -56.17880098 271.83579575 -58.21377563 271.85123825 C-61.04783588 271.87075708 -63.88076671 271.86511939 -66.71484375 271.85302734 C-67.55639511 271.86426636 -68.39794647 271.87550537 -69.26499939 271.88708496 C-74.92348931 271.82549646 -74.92348931 271.82549646 -77.40258789 269.52774048 C-87.16616918 248.75254619 -81.34977903 218.27386095 -79.69946289 196.25863647 C-71.95251119 125.96049039 -71.95251119 125.96049039 -92.41796875 60.3671875 C-99.24677723 53.30738338 -107.21338349 51.23056606 -116.79296875 50.9296875 C-127.96279573 51.19749554 -137.04944629 54.92850087 -145.41796875 62.3671875 C-158.62452747 76.98965408 -159.4270296 96.5044256 -160.3684082 115.16455078 C-160.47620755 117.28343037 -160.5956388 119.40137952 -160.71679688 121.51953125 C-162.09218923 146.76412817 -162.42426762 172.08282709 -162.6640625 197.359375 C-162.67664691 198.6522279 -162.67664691 198.6522279 -162.68948555 199.97119904 C-162.76591045 207.86436347 -162.83831326 215.75754429 -162.89477539 223.65087891 C-162.92665123 228.05313295 -162.96784177 232.45521814 -163.01497078 236.85733414 C-163.0308088 238.50218864 -163.04321228 240.14708045 -163.05187798 241.79198837 C-163.16487224 262.80688282 -163.16487224 262.80688282 -167.79296875 268.8671875 C-172.16498456 273.03101208 -176.94049522 272.6196846 -182.765625 272.89453125 C-183.59852554 272.93585678 -184.43142609 272.97718231 -185.28956604 273.01976013 C-194.51524225 273.45461874 -203.74528166 273.67909546 -212.97875977 273.86987305 C-215.84987063 273.9295711 -218.72082032 273.99473582 -221.59179688 274.06054688 C-226.27435763 274.16479544 -230.95694473 274.2511739 -235.6401062 274.32342529 C-237.51656305 274.35298683 -239.39297071 274.38582496 -241.26931763 274.42169189 C-244.01677054 274.47156545 -246.76398156 274.50552802 -249.51171875 274.53515625 C-250.74836525 274.56096519 -250.74836525 274.56096519 -252.00999451 274.58729553 C-257.35972284 274.62170782 -261.19789908 274.06640014 -265.40625 270.47265625 C-266.07011719 269.77785156 -266.73398437 269.08304687 -267.41796875 268.3671875 C-268.33964844 267.43519531 -269.26132812 266.50320313 -270.2109375 265.54296875 C-284.55472308 250.64030363 -284.55472308 250.64030363 -284.53149414 241.49606323 C-284.53142113 240.48800692 -284.53134811 239.4799506 -284.53127289 238.44134712 C-284.52610909 237.33261175 -284.52094528 236.22387638 -284.515625 235.08154297 C-284.51418739 233.90852064 -284.51274979 232.73549831 -284.51126862 231.52692986 C-284.50648868 228.28009783 -284.49730952 225.03331078 -284.48653221 221.78649426 C-284.47629209 218.32082392 -284.47229199 214.85514718 -284.46789551 211.38946533 C-284.4597781 205.44260022 -284.44893483 199.49574626 -284.4362793 193.54888916 C-284.40377189 177.98312947 -284.39168318 162.41735317 -284.38671875 146.8515625 C-284.38628728 145.6834323 -284.38628728 145.6834323 -284.38584709 144.49170351 C-284.37430408 110.05045961 -284.65913989 75.61581764 -285.09785461 41.177351 C-285.20539172 32.71822854 -285.30597679 24.2590585 -285.39294434 15.79969788 C-285.40987346 14.1540943 -285.42721905 12.50849496 -285.44494629 10.86289978 C-285.49659902 5.98964763 -285.53717819 1.11653925 -285.5610199 -3.7569313 C-285.56970758 -5.24363741 -285.58179342 -6.73032817 -285.59754944 -8.21697617 C-285.618242 -10.23979026 -285.62491447 -12.26273334 -285.63085938 -14.28564453 C-285.63815063 -15.4209964 -285.64544189 -16.55634827 -285.6529541 -17.72610474 C-285.41707392 -20.64388137 -285.20118252 -22.3124259 -283.41796875 -24.6328125 C-281.451828 -25.23628235 -281.451828 -25.23628235 -278.92260742 -25.37231445 C-277.92933441 -25.4275528 -276.9360614 -25.48279114 -275.91268921 -25.53970337 C-268.72145548 -25.73129796 -261.53706809 -25.79762454 -254.34375 -25.80078125 C-252.60743687 -25.80400149 -250.87112399 -25.80736612 -249.1348114 -25.81086731 C-245.51491669 -25.81682073 -241.89504574 -25.81871089 -238.27514648 -25.81811523 C-233.65205105 -25.81801328 -229.02910802 -25.83171694 -224.40604877 -25.84888744 C-220.82770596 -25.86003297 -217.24939988 -25.86203373 -213.67104149 -25.86150551 C-211.96671201 -25.86267978 -210.26238141 -25.8670703 -208.55806923 -25.87483788 C-206.17312636 -25.88469938 -203.7885133 -25.88173676 -201.40356445 -25.87573242 C-200.36456749 -25.88416168 -200.36456749 -25.88416168 -199.30458069 -25.89276123 C-193.85011 -25.85808699 -187.43667096 -25.65151471 -183.41796875 -21.6328125 C-182.14152587 -15.40275685 -182.09549653 -9.03440675 -181.85546875 -2.6953125 C-181.81228516 -1.62990234 -181.76910156 -0.56449219 -181.72460938 0.53320312 C-181.61922386 3.14442193 -181.51709787 5.75572496 -181.41796875 8.3671875 C-180.41121094 7.62855469 -179.40445313 6.88992187 -178.3671875 6.12890625 C-127.16646351 -30.98637898 -52.23478575 -45.26492678 0 0 Z M-270.41796875 -12.6328125 C-271.33897428 -9.86979591 -271.54434755 -8.23913659 -271.54736328 -5.39160156 C-271.55047516 -4.52600113 -271.55358704 -3.6604007 -271.55679321 -2.76856995 C-271.55480927 -1.82142624 -271.55282532 -0.87428253 -271.55078125 0.1015625 C-271.55210052 1.10063126 -271.5534198 2.09970001 -271.55477905 3.12904358 C-271.55672165 6.45845475 -271.55026833 9.78778453 -271.54296875 13.1171875 C-271.54208252 14.27318451 -271.54119629 15.42918152 -271.5402832 16.62020874 C-271.52568278 33.02504757 -271.32977658 49.42044349 -270.98788452 65.82150269 C-270.05465317 110.64634375 -269.92876817 155.41402433 -271.70629883 200.21557617 C-272.14501354 211.29487709 -272.54146961 222.37306956 -272.66796875 233.4609375 C-272.68931885 234.4355896 -272.71066895 235.4102417 -272.73266602 236.41442871 C-272.73709717 237.30311646 -272.74152832 238.1918042 -272.74609375 239.10742188 C-272.75543945 239.88549194 -272.76478516 240.66356201 -272.77441406 241.46520996 C-272.65678711 242.09286255 -272.53916016 242.72051514 -272.41796875 243.3671875 C-268.68118445 245.85837703 -266.67345056 245.5737101 -262.23046875 245.4921875 C-260.95816406 245.47414063 -259.68585938 245.45609375 -258.375 245.4375 C-257.39917969 245.41429687 -256.42335938 245.39109375 -255.41796875 245.3671875 C-256.82984462 241.22867306 -258.86559848 238.37701838 -261.60546875 234.9921875 C-265.31706405 230.0277613 -265.31706405 230.0277613 -265.75390625 227.16796875 C-265.39018743 224.68948482 -264.53371353 222.59867707 -263.41796875 220.3671875 C-260.29897237 220.68501269 -258.76309792 221.03859146 -256.4609375 223.23046875 C-255.84863281 224.03871094 -255.23632812 224.84695313 -254.60546875 225.6796875 C-253.58839844 227.01773438 -253.58839844 227.01773438 -252.55078125 228.3828125 C-249.59289743 232.5216829 -246.75955204 236.73285701 -243.984375 240.99609375 C-242.62295525 243.22894321 -242.62295525 243.22894321 -241.41796875 244.3671875 C-238.74738024 244.50833911 -236.09364637 244.40965857 -233.41796875 244.3671875 C-234.69776365 240.82754321 -236.18704538 238.08580099 -238.4921875 235.1171875 C-239.07677734 234.34375 -239.66136719 233.5703125 -240.26367188 232.7734375 C-241.49587872 231.16359781 -242.73553985 229.55943766 -243.98242188 227.9609375 C-244.56314453 227.1875 -245.14386719 226.4140625 -245.7421875 225.6171875 C-246.27932373 224.92109375 -246.81645996 224.225 -247.36987305 223.5078125 C-248.74270375 220.7039505 -248.31235388 219.30541378 -247.41796875 216.3671875 C-246.78359531 214.6879637 -246.12507553 213.01710332 -245.41796875 211.3671875 C-243.21484375 211.453125 -243.21484375 211.453125 -240.41796875 212.3671875 C-238.60168557 214.56236419 -237.15045235 216.58853164 -235.66796875 218.9921875 C-235.24257812 219.65428223 -234.8171875 220.31637695 -234.37890625 220.99853516 C-230.88288805 226.48433591 -227.53490662 232.06996698 -224.28613281 237.70556641 C-222.44154461 241.11592686 -222.44154461 241.11592686 -219.41796875 243.3671875 C-217.87772879 243.43669291 -216.33461887 243.45171107 -214.79296875 243.4296875 C-213.97570312 243.42066406 -213.1584375 243.41164063 -212.31640625 243.40234375 C-211.68992187 243.39074219 -211.0634375 243.37914062 -210.41796875 243.3671875 C-209.08686595 240.54225441 -209.08686595 240.54225441 -210.24731445 238.67236328 C-210.69163818 238.0586084 -211.13596191 237.44485352 -211.59375 236.8125 C-212.08770264 236.1210791 -212.58165527 235.4296582 -213.09057617 234.71728516 C-213.63174072 233.98300293 -214.17290527 233.2487207 -214.73046875 232.4921875 C-215.27356689 231.73856934 -215.81666504 230.98495117 -216.3762207 230.20849609 C-220.63368698 224.33531547 -225.04544634 218.58775003 -229.5546875 212.90625 C-231.41796875 210.3671875 -231.41796875 210.3671875 -232.41796875 207.3671875 C-230.96483414 204.05726978 -230.00988993 202.65626529 -226.73046875 201.0546875 C-225.58578125 200.714375 -225.58578125 200.714375 -224.41796875 200.3671875 C-224.15387207 200.92027588 -223.88977539 201.47336426 -223.61767578 202.04321289 C-222.27783286 204.63864732 -220.77752581 207.07796867 -219.22265625 209.55078125 C-218.27724976 211.05801758 -218.27724976 211.05801758 -217.31274414 212.59570312 C-216.31295532 214.18415039 -216.31295532 214.18415039 -215.29296875 215.8046875 C-213.93455888 217.96984072 -212.57648343 220.13520378 -211.21875 222.30078125 C-210.56471191 223.34347168 -209.91067383 224.38616211 -209.23681641 225.46044922 C-205.93144716 230.74282858 -202.66810217 236.05067533 -199.41796875 241.3671875 C-198.09796875 241.0371875 -196.77796875 240.7071875 -195.41796875 240.3671875 C-196.02028188 235.36107676 -198.25587874 231.42833569 -200.60546875 227.0546875 C-201.03819092 226.24016113 -201.47091309 225.42563477 -201.91674805 224.58642578 C-206.78044969 215.53093104 -211.99513098 206.67915378 -217.21875 197.828125 C-218.02626709 196.44512207 -218.02626709 196.44512207 -218.85009766 195.03417969 C-219.87572604 193.28955738 -220.9190818 191.55520601 -221.98193359 189.83300781 C-222.44937988 189.05280273 -222.91682617 188.27259766 -223.3984375 187.46875 C-223.81375732 186.79408691 -224.22907715 186.11942383 -224.65698242 185.42431641 C-225.67238978 182.67942631 -225.31439624 181.12521184 -224.41796875 178.3671875 C-221.85546875 175.5546875 -221.85546875 175.5546875 -219.41796875 173.3671875 C-215.73568225 179.03404291 -212.52191427 184.84125571 -209.4765625 190.87109375 C-209.02700699 191.7532103 -208.57745148 192.63532684 -208.11427307 193.54417419 C-206.6912201 196.33760538 -205.27302431 199.13346316 -203.85546875 201.9296875 C-202.43366451 204.72912858 -201.0107823 207.52800992 -199.58595276 210.32591248 C-198.70361699 212.05903983 -197.8230872 213.79308823 -196.94468689 215.5282135 C-194.55867375 220.22056822 -192.06989894 224.81955201 -189.41796875 229.3671875 C-189.08796875 229.3671875 -188.75796875 229.3671875 -188.41796875 229.3671875 C-186.65016458 212.71356569 -188.99763537 202.41483388 -198.69384766 188.82421875 C-201.58855342 184.6989966 -204.19756918 180.39702705 -206.85546875 176.1171875 C-207.81036781 174.61062561 -208.76730516 173.10535315 -209.7265625 171.6015625 C-210.17112793 170.89870117 -210.61569336 170.19583984 -211.07373047 169.47167969 C-211.99386895 168.03114324 -212.92856891 166.59983328 -213.87548828 165.17675781 C-214.56360596 164.12633301 -214.56360596 164.12633301 -215.265625 163.0546875 C-215.67949463 162.43464844 -216.09336426 161.81460938 -216.51977539 161.17578125 C-218.08865737 158.01669517 -217.41875723 155.61975006 -216.41796875 152.3671875 C-214.98046875 149.9296875 -214.98046875 149.9296875 -213.41796875 148.3671875 C-212.75796875 148.3671875 -212.09796875 148.3671875 -211.41796875 148.3671875 C-210.89795288 149.33205078 -210.89795288 149.33205078 -210.36743164 150.31640625 C-203.49310888 163.0627121 -196.58120716 175.78061871 -189.41796875 188.3671875 C-188.75796875 188.3671875 -188.09796875 188.3671875 -187.41796875 188.3671875 C-187.13273575 186.58448126 -186.87290725 184.79623406 -186.69140625 183 C-186.41796875 180.3671875 -186.41796875 180.3671875 -185.89453125 177.421875 C-184.63401953 165.57306481 -190.9768735 158.2257108 -197.578125 148.97802734 C-200.57056577 144.73158871 -203.37458123 140.37109219 -206.16796875 135.9921875 C-206.68069336 135.21399658 -207.19341797 134.43580566 -207.72167969 133.6340332 C-210.31856533 129.59024796 -212.26436434 126.31178666 -212.41796875 121.3671875 C-210.98046875 118.4921875 -210.98046875 118.4921875 -209.41796875 116.3671875 C-205.20456102 117.88368639 -203.78525477 120.49895427 -201.52734375 124.25 C-201.17786682 124.82426727 -200.82838989 125.39853455 -200.46832275 125.99020386 C-199.35861105 127.81859517 -198.26320426 129.65509581 -197.16796875 131.4921875 C-196.41629366 132.73623892 -195.66369946 133.9797355 -194.91015625 135.22265625 C-193.06873407 138.26447694 -191.24004161 141.31372767 -189.41796875 144.3671875 C-186.19069781 139.52628109 -186.39108032 135.00881234 -187.41796875 129.3671875 C-190.14269993 122.89851178 -194.43580576 117.02773782 -198.609375 111.42578125 C-203.28532926 104.93612352 -204.0036428 100.7811876 -202.8828125 92.82421875 C-202.65271484 91.60798828 -202.65271484 91.60798828 -202.41796875 90.3671875 C-200.61572266 90.57397461 -200.61572266 90.57397461 -198.41796875 91.3671875 C-196.80224609 93.40844727 -196.80224609 93.40844727 -195.25390625 96.05859375 C-194.68929687 97.00283203 -194.1246875 97.94707031 -193.54296875 98.91992188 C-192.96546875 99.91314453 -192.38796875 100.90636719 -191.79296875 101.9296875 C-190.64055011 103.89311441 -189.4820249 105.85297438 -188.31640625 107.80859375 C-187.80770996 108.68201416 -187.29901367 109.55543457 -186.77490234 110.45532227 C-186.32711426 111.08623779 -185.87932617 111.71715332 -185.41796875 112.3671875 C-184.75796875 112.3671875 -184.09796875 112.3671875 -183.41796875 112.3671875 C-182.53229861 98.53463336 -182.53229861 98.53463336 -187.60546875 86.4296875 C-189.45547739 84.76639629 -189.45547739 84.76639629 -191.41796875 83.3671875 C-193.69748931 81.45219581 -195.46649487 79.66016931 -197.41796875 77.3671875 C-197.41796875 73.01972471 -196.82835462 70.98276631 -194.41796875 67.3671875 C-192.01953125 66.94140625 -192.01953125 66.94140625 -189.41796875 67.3671875 C-187.50390625 69.01171875 -187.50390625 69.01171875 -185.79296875 71.1796875 C-183.7584068 73.70677916 -181.75969079 76.11771512 -179.41796875 78.3671875 C-178.94359375 77.2946875 -178.46921875 76.2221875 -177.98046875 75.1171875 C-169.19917379 57.64735774 -153.87432852 43.86384904 -135.6015625 37.0234375 C-119.20885833 32.09682873 -99.95302932 34.74204443 -85.05078125 42.640625 C-81.04395921 45.2682442 -78.72664594 48.21466745 -76.41796875 52.3671875 C-76.05445313 52.975625 -75.6909375 53.5840625 -75.31640625 54.2109375 C-54.74436345 93.78463815 -59.49460476 159.53120141 -63.15820312 203.1953125 C-63.51579462 207.56169287 -63.78622114 211.93141993 -64.04296875 216.3046875 C-64.11773437 217.50996094 -64.1925 218.71523438 -64.26953125 219.95703125 C-64.34300781 221.15005859 -64.34300781 221.15005859 -64.41796875 222.3671875 C-64.02609375 221.8515625 -63.63421875 221.3359375 -63.23046875 220.8046875 C-61.41796875 219.3671875 -61.41796875 219.3671875 -58.98046875 219.36328125 C-55.56866168 220.69991908 -54.47201833 222.41901402 -52.41796875 225.4296875 C-51.37962891 226.91082031 -51.37962891 226.91082031 -50.3203125 228.421875 C-48.70667997 230.92018901 -47.34545864 233.41917069 -45.98046875 236.0546875 C-44.94414161 238.0000334 -44.94414161 238.0000334 -43.41796875 239.3671875 C-40.31182598 240.02526859 -37.53997049 239.85691326 -34.41796875 239.3671875 C-36.03351669 233.03228135 -39.66231858 228.81880757 -43.69335938 223.84570312 C-47.42809126 219.02146995 -47.42809126 219.02146995 -47.375 215.58984375 C-46.41796875 213.3671875 -46.41796875 213.3671875 -44.41796875 210.3671875 C-41.20016399 210.62549751 -40.34123214 211.45136287 -38.12109375 213.88671875 C-37.29185124 214.97568754 -36.47475866 216.0739813 -35.66796875 217.1796875 C-35.23548828 217.75702637 -34.80300781 218.33436523 -34.35742188 218.92919922 C-30.15602417 224.59429972 -26.25140632 230.4479089 -22.41796875 236.3671875 C-21.75796875 237.3571875 -21.09796875 238.3471875 -20.41796875 239.3671875 C-17.7514297 239.73179203 -17.7514297 239.73179203 -14.79296875 239.5546875 C-13.28863281 239.51408203 -13.28863281 239.51408203 -11.75390625 239.47265625 C-10.98304688 239.43785156 -10.2121875 239.40304687 -9.41796875 239.3671875 C-10.93845983 235.04159119 -13.20421323 231.3947078 -15.734375 227.60546875 C-16.15089828 226.97360153 -16.56742157 226.34173431 -16.99656677 225.6907196 C-18.32032044 223.68421957 -19.65012586 221.68182345 -20.98046875 219.6796875 C-22.31318661 217.66607502 -23.64463711 215.65163507 -24.9750824 213.63652039 C-25.80151191 212.38564563 -26.6294754 211.13578272 -27.4591217 209.88703918 C-30.504861 205.28977657 -31.75315288 202.95358974 -31.41796875 197.3671875 C-30.01796875 193.6671875 -30.01796875 193.6671875 -27.41796875 192.3671875 C-27.14122314 193.10332275 -26.86447754 193.83945801 -26.5793457 194.59790039 C-25.50693616 197.15504597 -24.3150879 199.337599 -22.8359375 201.67578125 C-22.32216553 202.49530273 -21.80839355 203.31482422 -21.27905273 204.15917969 C-20.72677002 205.03219727 -20.1744873 205.90521484 -19.60546875 206.8046875 C-15.90741113 212.68442693 -12.2648797 218.57958307 -8.80859375 224.60546875 C-7.94004761 226.11379272 -7.94004761 226.11379272 -7.05395508 227.65258789 C-5.936595 229.60286868 -4.82934583 231.55898316 -3.7331543 233.52124023 C-3.2256665 234.40368408 -2.71817871 235.28612793 -2.1953125 236.1953125 C-1.75437256 236.9780957 -1.31343262 237.76087891 -0.85913086 238.56738281 C0.46005759 240.52236455 0.46005759 240.52236455 2.69311523 241.19042969 C3.31645752 241.24875977 3.9397998 241.30708984 4.58203125 241.3671875 C6.17060962 239.77860913 5.85272022 238.17136438 5.93359375 235.96875 C5.85652052 229.761052 3.74642855 225.19758283 0.95703125 219.7421875 C0.47427734 218.76523926 -0.00847656 217.78829102 -0.50585938 216.78173828 C-6.7069577 204.45597741 -13.5967875 192.32839028 -21.11523438 180.75439453 C-22.86490666 177.54819221 -22.39421026 175.82158052 -21.41796875 172.3671875 C-20.75796875 171.3771875 -20.09796875 170.3871875 -19.41796875 169.3671875 C-17.54267883 169.67218018 -17.54267883 169.67218018 -15.41796875 170.3671875 C-13.86742969 172.79174265 -12.59108396 175.09159815 -11.3359375 177.6640625 C-10.77003654 178.7809848 -10.77003654 178.7809848 -10.19270325 179.92047119 C-8.98383744 182.31303531 -7.79424287 184.71458707 -6.60546875 187.1171875 C-5.42687418 189.46759893 -4.24438812 191.8160256 -3.0617981 194.16442871 C-2.28944862 195.69944316 -1.51882349 197.2353265 -0.74996948 198.77209473 C2.56097821 205.37809228 6.02768027 211.88906145 9.58203125 218.3671875 C11.83325948 214.99034515 11.8791585 213.70835685 11.89453125 209.7421875 C11.91128906 208.75992188 11.92804688 207.77765625 11.9453125 206.765625 C11.00938568 198.01018056 6.88537448 190.86995117 2.51953125 183.3671875 C1.94750977 182.36913086 1.37548828 181.37107422 0.78613281 180.34277344 C-3.22538454 173.36224214 -7.29094928 166.41129516 -11.43383789 159.5078125 C-14.70151845 154.03108326 -15.5388548 150.54376678 -15.48046875 144.1796875 C-15.47144531 142.90738281 -15.46242188 141.63507813 -15.453125 140.32421875 C-15.43572266 138.86048828 -15.43572266 138.86048828 -15.41796875 137.3671875 C-11.79903214 138.30079408 -10.61596496 139.05421639 -8.58447266 142.26538086 C-8.00470849 143.48826662 -7.4423752 144.71951637 -6.89453125 145.95703125 C-6.58526703 146.61619034 -6.27600281 147.27534943 -5.95736694 147.95448303 C-4.97007812 150.06429017 -4.00528688 152.18338893 -3.04296875 154.3046875 C3.02768063 170.36424964 3.02768063 170.36424964 13.58203125 182.3671875 C15.43466585 178.66191829 15.27750834 174.44728644 15.58203125 170.3671875 C15.68241699 169.32135498 15.78280273 168.27552246 15.88623047 167.19799805 C16.43979721 157.24026697 13.68487358 151.52994424 8.14453125 143.4296875 C7.40479373 142.29749623 6.66840543 141.16310995 5.93530273 140.02661133 C4.49553727 137.80158453 3.04049153 135.58984688 1.57421875 133.38183594 C-0.99537053 129.49344275 -3.44892977 125.54535559 -5.85546875 121.5546875 C-6.53480469 120.45511719 -7.21414063 119.35554687 -7.9140625 118.22265625 C-9.71123434 114.81036375 -10.91418499 112.16120006 -9.859375 108.34765625 C-9.04557292 106.6875 -8.23177083 105.02734375 -7.41796875 103.3671875 C-3.10334723 104.88415936 -1.70959244 107.67285807 0.55078125 111.51171875 C0.91296753 112.11851974 1.27515381 112.72532074 1.64831543 113.35050964 C2.80269541 115.28794571 3.94298899 117.23320154 5.08203125 119.1796875 C6.223287 121.11403155 7.36750124 123.04652737 8.51574707 124.97673035 C9.56006068 126.73463212 10.59569801 128.49767963 11.63085938 130.26098633 C13.44576616 133.15025798 15.39294723 135.75438028 17.58203125 138.3671875 C19.64438949 124.52265304 15.24698571 116.94643288 7.37548828 105.89941406 C4.25836843 101.49827506 1.29975743 96.9947169 -1.66796875 92.4921875 C-2.2405542 91.65397461 -2.81313965 90.81576172 -3.40307617 89.95214844 C-3.92877197 89.16356445 -4.45446777 88.37498047 -4.99609375 87.5625 C-5.69847168 86.52633545 -5.69847168 86.52633545 -6.41503906 85.46923828 C-7.63973061 82.90239451 -7.7253822 81.18053864 -7.41796875 78.3671875 C-5.66796875 75.9921875 -5.66796875 75.9921875 -3.41796875 74.3671875 C-1.5390625 74.3828125 -1.5390625 74.3828125 0.58203125 75.3671875 C2.15255437 77.39115038 3.45936784 79.30955838 4.76953125 81.4921875 C5.3428418 82.41378662 5.3428418 82.41378662 5.92773438 83.35400391 C8.03363899 86.75763359 10.08066802 90.19659049 12.1328125 93.6328125 C12.54313721 94.31972168 12.95346191 95.00663086 13.3762207 95.71435547 C14.17286496 97.05408562 14.96447488 98.39682363 15.75073242 99.74267578 C16.66817621 101.29998949 17.62137984 102.83614931 18.58203125 104.3671875 C18.91203125 104.3671875 19.24203125 104.3671875 19.58203125 104.3671875 C20.21828352 96.23252068 19.16569618 91.00367697 14.95703125 84.0546875 C14.47572754 83.21728027 13.99442383 82.37987305 13.49853516 81.51708984 C8.97183569 73.74699659 4.08907659 66.17632074 -0.90869141 58.7019043 C-6.33423384 50.45218007 -6.33423384 50.45218007 -6.41796875 45.3671875 C-5.48046875 41.4921875 -5.48046875 41.4921875 -4.41796875 38.3671875 C-2.43796875 38.3671875 -0.45796875 38.3671875 1.58203125 38.3671875 C8.22771724 49.75754765 14.07387415 61.38727136 19.58203125 73.3671875 C19.91203125 73.3671875 20.24203125 73.3671875 20.58203125 73.3671875 C21.32981139 55.03161856 10.9372091 39.71561956 0.58203125 25.3671875 C0.19515137 24.81949707 -0.19172852 24.27180664 -0.59033203 23.70751953 C-15.80615166 2.19236356 -35.17710018 -7.48301046 -60.66796875 -12.5703125 C-82.70253559 -16.13929164 -105.28746193 -12.12431616 -126.41796875 -5.6328125 C-127.49433594 -5.31054688 -128.57070313 -4.98828125 -129.6796875 -4.65625 C-149.02004407 1.96750611 -168.5869517 14.57285749 -183.39453125 28.51953125 C-186.64249432 31.48533536 -189.13303745 32.67233378 -193.41796875 33.3671875 C-193.44769775 31.6500354 -193.44769775 31.6500354 -193.47802734 29.89819336 C-193.55442103 25.62828542 -193.64308512 21.35870333 -193.73535156 17.08911133 C-193.77350233 15.24542704 -193.80837885 13.40167184 -193.83984375 11.55786133 C-193.8857977 8.89899449 -193.94374035 6.24060997 -194.00390625 3.58203125 C-194.01545746 2.76508286 -194.02700867 1.94813446 -194.03890991 1.10643005 C-194.16425587 -3.81589226 -194.86015782 -7.95664672 -196.41796875 -12.6328125 C-205.03268662 -12.78703695 -213.64747867 -12.93521371 -222.26242924 -13.0757761 C-226.26314532 -13.14123999 -230.2638047 -13.20874779 -234.2644043 -13.28100586 C-238.12874373 -13.35072629 -241.99313971 -13.41497426 -245.85763359 -13.47550774 C-247.32836621 -13.49949194 -248.79906862 -13.52541252 -250.26973152 -13.55334663 C-252.33740651 -13.59228218 -254.40508396 -13.62418763 -256.47290039 -13.65454102 C-257.64760391 -13.67452652 -258.82230743 -13.69451202 -260.03260803 -13.71510315 C-263.56461832 -13.62924777 -266.93337058 -13.19954594 -270.41796875 -12.6328125 Z M-64.41796875 225.3671875 C-64.78341786 227.26087834 -65.1348605 229.15727532 -65.48046875 231.0546875 C-65.67769531 232.11042969 -65.87492188 233.16617187 -66.078125 234.25390625 C-66.40831821 237.27877966 -66.19271433 239.44699261 -65.41796875 242.3671875 C-60.33493189 242.48039606 -60.33493189 242.48039606 -55.41796875 241.3671875 C-55.98694721 237.04453173 -57.5458663 234.18575416 -59.91796875 230.5546875 C-60.54703125 229.57886719 -61.17609375 228.60304688 -61.82421875 227.59765625 C-62.35015625 226.86160156 -62.87609375 226.12554687 -63.41796875 225.3671875 C-63.74796875 225.3671875 -64.07796875 225.3671875 -64.41796875 225.3671875 Z " fill="currentColor" transform="translate(476.41796875,216.6328125)"/>
<path d="M0 0 C0.71787689 0.0015509 1.43575378 0.00310181 2.17538452 0.00469971 C27.59393966 0.06768803 53.07025431 0.35295004 78.4375 2.0625 C80.11259644 2.17440674 80.11259644 2.17440674 81.8215332 2.28857422 C96.60627181 3.40058486 108.43811364 5.03289846 119 16.125 C131.26770372 31.26874214 135.7611228 48.04958753 135.42578125 67.2890625 C135.41236226 68.74964232 135.39912933 70.21022387 135.38606262 71.67080688 C135.1528741 89.584041 133.82819111 107.45861561 132.60681152 125.3253479 C129.85148209 165.71292252 128.01571309 206.07292043 126.93823242 246.53857422 C126.10570096 277.52700412 126.10570096 277.52700412 125.109375 288.88671875 C125.04397522 289.68954788 124.97857544 290.49237701 124.91119385 291.3195343 C124.46700394 295.61261592 123.61715951 298.66820163 121 302.125 C114.82637852 306.9267056 109.15683835 308.43545771 101.44140625 308.35546875 C100.68824127 308.35550903 99.93507629 308.35554932 99.15908813 308.35559082 C96.62672661 308.35215033 94.09477711 308.33304318 91.5625 308.3125 C89.75756974 308.30351038 87.95263802 308.29481131 86.14770508 308.28637695 C80.96595149 308.25715203 75.78448632 308.20903775 70.60290527 308.15820312 C66.71349226 308.12235964 62.82404813 308.0939623 58.93457031 308.06640625 C51.77971597 308.01474363 44.62522721 307.94256098 37.47067261 307.85952759 C34.61711667 307.82682081 31.76360737 307.80048904 28.90994263 307.77938843 C24.87063065 307.74879902 20.83199298 307.6938362 16.79296875 307.63671875 C15.57388824 307.63031372 14.35480774 307.62390869 13.0987854 307.61730957 C11.97201385 307.59753052 10.84524231 307.57775146 9.68432617 307.55737305 C8.7029216 307.54626999 7.72151703 307.53516693 6.71037292 307.52372742 C3.52474385 307.05508429 1.63669836 305.93529485 -1 304.125 C-1.66451172 303.67116943 -2.32902344 303.21733887 -3.01367188 302.74975586 C-3.65884766 302.28448486 -4.30402344 301.81921387 -4.96875 301.33984375 C-5.69884277 300.81374512 -6.42893555 300.28764648 -7.18115234 299.74560547 C-8.32898193 298.91246826 -8.32898193 298.91246826 -9.5 298.0625 C-10.29229004 297.48902832 -11.08458008 296.91555664 -11.90087891 296.32470703 C-18.70079866 291.38292882 -25.36519549 286.2854035 -32 281.125 C-32.70455826 280.71709732 -33.40911652 280.30919464 -34.13502502 279.88893127 C-36 278.125 -36 278.125 -36.47691345 275.3401947 C-36.45921654 273.62673607 -36.45921654 273.62673607 -36.44116211 271.87866211 C-36.43313316 269.90199303 -36.43313316 269.90199303 -36.42494202 267.88539124 C-36.39730845 266.41186149 -36.36891399 264.93834585 -36.33984375 263.46484375 C-36.32304432 261.90121147 -36.30744818 260.33756587 -36.29295349 258.77391052 C-36.08761062 240.72768164 -35.45952753 222.68523473 -34.87997437 204.64806271 C-33.34413313 156.77853558 -32.56964728 108.94045454 -32.31133175 61.04925346 C-32.29162541 57.41916135 -32.2705119 53.78907953 -32.24919128 50.15899658 C-32.22325689 45.73634935 -32.20384643 41.31374976 -32.18916321 36.89105225 C-32.16583998 31.30144694 -32.09523786 25.71379027 -32 20.125 C-31.99114021 19.30276821 -31.98228043 18.48053642 -31.97315216 17.63338852 C-31.9416092 15.37527097 -31.87672501 13.12096242 -31.79931641 10.86401367 C-31.7664151 9.62294357 -31.73351379 8.38187347 -31.69961548 7.10319519 C-31 4.125 -31 4.125 -28.59799194 2.23551941 C-20.0615237 -1.41341942 -9.11155192 -0.03523856 0 0 Z M-20 10.125 C-20.75955058 21.78050643 -21.23644848 33.41716884 -21.5 45.09375 C-21.54053716 46.79575072 -21.58128395 48.49774645 -21.6222229 50.19973755 C-21.73025197 54.73361249 -21.83404941 59.26757341 -21.93628693 63.80158234 C-22.00067115 66.65474162 -22.06578972 69.50788341 -22.13104248 72.36102295 C-22.433336 85.61541681 -22.72156028 98.87008461 -23 112.125 C-23.02493279 113.30664482 -23.02493279 113.30664482 -23.05036926 114.51216125 C-23.45741492 133.84222676 -23.76581392 153.17220308 -23.95385742 172.50567627 C-23.98592396 175.7792681 -24.02105218 179.05281307 -24.05786133 182.32635498 C-24.17451246 192.77398459 -24.27045008 203.22138158 -24.32502556 213.66953659 C-24.34972745 218.37122464 -24.38203266 223.07252324 -24.43487549 227.77398682 C-24.48375536 232.18232366 -24.50805117 236.59013806 -24.51395416 240.99873543 C-24.52019879 242.62777407 -24.53500835 244.25680596 -24.55904388 245.88567924 C-24.87230641 257.94008873 -24.87230641 257.94008873 -19 268.125 C-18.49513565 268.67598358 -17.9902713 269.22696716 -17.47010803 269.79464722 C-15.44338614 271.62869958 -14.03420427 271.55066228 -11.33203125 271.63671875 C-10.43935547 271.67216797 -9.54667969 271.70761719 -8.62695312 271.74414062 C-7.69818359 271.76669922 -6.76941406 271.78925781 -5.8125 271.8125 C-4.87212891 271.84666016 -3.93175781 271.88082031 -2.96289062 271.91601562 C-0.64204607 271.99848218 1.67842148 272.06763403 4 272.125 C2.12659577 266.7426799 -1.11238153 262.5556155 -4.41796875 257.96484375 C-6 255.125 -6 255.125 -5.8203125 252.86328125 C-4.81368471 250.73018904 -3.90144909 249.53348081 -2 248.125 C-0.68 248.125 0.64 248.125 2 248.125 C2.27706787 248.85944336 2.55413574 249.59388672 2.83959961 250.35058594 C3.9125392 252.91588901 5.11182278 255.15176189 6.56640625 257.515625 C7.05173828 258.30710937 7.53707031 259.09859375 8.03710938 259.9140625 C8.79217773 261.13222656 8.79217773 261.13222656 9.5625 262.375 C10.32336914 263.61636719 10.32336914 263.61636719 11.09960938 264.8828125 C13.28071095 268.70755618 13.28071095 268.70755618 16 272.125 C17.68608966 272.19705511 19.37500659 272.20886068 21.0625 272.1875 C22.44115234 272.17396484 22.44115234 272.17396484 23.84765625 272.16015625 C24.55792969 272.14855469 25.26820312 272.13695312 26 272.125 C22.86120733 265.45880224 19.05134159 259.70991546 14.71484375 253.7734375 C14.23660156 253.10054687 13.75835937 252.42765625 13.265625 251.734375 C12.83024414 251.13592773 12.39486328 250.53748047 11.94628906 249.92089844 C11 248.125 11 248.125 11 244.125 C11.66 243.465 12.32 242.805 13 242.125 C14.32 242.125 15.64 242.125 17 242.125 C18.62817383 243.89404297 18.62817383 243.89404297 20.20703125 246.3671875 C20.79419922 247.26953125 21.38136719 248.171875 21.98632812 249.1015625 C22.8902832 250.53628906 22.8902832 250.53628906 23.8125 252 C25.00532525 253.85232624 26.1993338 255.70389102 27.39453125 257.5546875 C27.98314941 258.47217773 28.57176758 259.38966797 29.17822266 260.33496094 C33.64112159 267.5792687 33.64112159 267.5792687 39 274.125 C44.87646031 274.58831437 44.87646031 274.58831437 50 272.125 C44.59896701 262.72320184 38.80236447 253.83982102 32.28515625 245.171875 C28.06451613 239.54435484 28.06451613 239.54435484 27.625 236.6875 C28 234.125 28 234.125 29.75 231.75 C32 230.125 32 230.125 33.8671875 230.140625 C37.10992681 231.63727391 38.53085482 234.32214248 40.375 237.25 C40.79346191 237.89437012 41.21192383 238.53874023 41.64306641 239.20263672 C46.30961896 246.4585466 50.75245459 253.86109103 55.17724609 261.26611328 C59.10326391 268.05352825 59.10326391 268.05352825 64 274.125 C67.83063297 274.67223328 69.98917507 274.82261157 73.21875 272.59375 C73.8065625 272.1090625 74.394375 271.624375 75 271.125 C69.74432658 261.24877985 63.68661041 252.2502393 57.05078125 243.25390625 C56.53999023 242.56006836 56.02919922 241.86623047 55.50292969 241.15136719 C54.5087447 239.81092933 53.50428819 238.47804322 52.48925781 237.15332031 C48.98646997 232.49031081 48.98646997 232.49031081 49.125 228.75 C50 226.125 50 226.125 51 225.125 C53.296875 224.73828125 53.296875 224.73828125 56 225.125 C58.078125 227.16796875 58.078125 227.16796875 60.25 230.3125 C60.65404053 230.89676758 61.05808105 231.48103516 61.47436523 232.08300781 C69.59511219 244.15617475 77.49321523 257.11143045 84 270.125 C85.98 269.795 87.96 269.465 90 269.125 C90.96435361 265.52079574 91.21240365 263.63948884 89.76953125 260.14453125 C89.12371094 259.08621094 88.47789062 258.02789062 87.8125 256.9375 C87.45446289 256.34219482 87.09642578 255.74688965 86.72753906 255.13354492 C85.5050742 253.11760886 84.25521938 251.12069176 83 249.125 C82.54866699 248.40054688 82.09733398 247.67609375 81.63232422 246.9296875 C77.03653491 239.55869369 72.41593961 232.20857381 67.5625 225.00390625 C67.00788086 224.16561279 66.45326172 223.32731934 65.88183594 222.46362305 C64.82393232 220.86647981 63.74991717 219.279847 62.65722656 217.70629883 C59.21658074 212.46734366 58.09439589 208.38118896 59 202.125 C59.33 201.135 59.66 200.145 60 199.125 C62.21875 199.21484375 62.21875 199.21484375 65 200.125 C66.75638353 202.30501829 68.1058738 204.28905358 69.5 206.6875 C69.91725342 207.3784375 70.33450684 208.069375 70.7644043 208.78125 C75.22852755 216.28403279 79.3490578 223.98947069 83.4453125 231.69750977 C86.4364083 237.31926691 89.55154002 242.77064439 93 248.125 C96.84038466 244.28461534 95.90237945 238.0813028 95.98974609 232.90380859 C95.63125616 220.85303161 90.01161876 211.86167952 83.73193359 201.88427734 C81.64010114 198.55161729 79.67117126 195.15696888 77.70458984 191.74951172 C76.52695103 189.71689351 75.32953388 187.69800954 74.12109375 185.68359375 C73.76990479 185.09271973 73.41871582 184.5018457 73.05688477 183.89306641 C72.32954028 182.67628914 71.59245595 181.46529832 70.84741211 180.25927734 C67.87134592 175.32217616 67.53284078 172.73091065 68 167.125 C68.33 166.135 68.66 165.145 69 164.125 C73.55441624 164.62950682 73.55441624 164.62950682 75.51049805 166.8046875 C75.92340088 167.52914062 76.33630371 168.25359375 76.76171875 169 C77.23625488 169.81307617 77.71079102 170.62615234 78.19970703 171.46386719 C78.69067871 172.34204102 79.18165039 173.22021484 79.6875 174.125 C80.20425293 175.01606445 80.72100586 175.90712891 81.25341797 176.82519531 C82.85072328 179.58342115 84.42664253 182.35305792 86 185.125 C87.43098691 187.62350408 88.86665273 190.11901587 90.31176758 192.609375 C91.17541469 194.09936296 92.03098015 195.59406989 92.87768555 197.09375 C93.86308392 198.80395579 94.92401068 200.47029133 96 202.125 C96.66 202.125 97.32 202.125 98 202.125 C99.95658189 191.29679338 99.64926007 184.14542636 93.31982422 174.95068359 C91.90709331 172.98707036 90.45663234 171.05618238 89 169.125 C88.10101629 167.87428207 87.20637787 166.62042785 86.31640625 165.36328125 C84.64504886 163.00719937 82.96392259 160.65879544 81.2734375 158.31640625 C71.8793355 145.1291531 71.8793355 145.1291531 73 138.125 C74 135.6875 74 135.6875 75 134.125 C76.7421875 134.25 76.7421875 134.25 79 135.125 C80.55338446 137.10752958 81.83531227 138.98067182 83.125 141.125 C83.50390381 141.73424316 83.88280762 142.34348633 84.27319336 142.97119141 C88.98617519 150.60520513 93.4996104 158.36441166 98 166.125 C98.66 165.795 99.32 165.465 100 165.125 C100.99415671 156.04980043 98.96546023 151.10730148 93.625 143.875 C92.67729736 142.51918823 92.67729736 142.51918823 91.71044922 141.13598633 C89.82990479 138.44844036 87.9200822 135.78439503 86 133.125 C84.46716473 130.99095469 82.94082701 128.85420003 81.43896484 126.69824219 C80.5929837 125.48412879 79.72984436 124.28170293 78.84619141 123.09472656 C75.66387998 118.5447098 75.58628135 115.47538849 76 110.125 C76.5 107.625 76.5 107.625 77 106.125 C79.23828125 106.22265625 79.23828125 106.22265625 82 107.125 C83.64833703 109.27487186 84.90074218 111.20975018 86.1875 113.5625 C86.56189209 114.21613525 86.93628418 114.86977051 87.32202148 115.54321289 C88.56615384 117.72742466 89.78375453 119.92514973 91 122.125 C91.93424785 123.79202998 92.86915811 125.45868888 93.8046875 127.125 C96.2236224 131.44722017 98.61742304 135.78264157 101 140.125 C101.33 140.125 101.66 140.125 102 140.125 C103.3716764 129.55166109 100.02918482 123.5253116 94 115.125 C92.97770644 113.66247794 91.95694868 112.1988815 90.9375 110.734375 C88.88722478 107.80097664 86.81959746 104.88130071 84.734375 101.97265625 C84.03731445 100.99111572 84.03731445 100.99111572 83.32617188 99.98974609 C82.47599981 98.79430901 81.61854109 97.60400115 80.75195312 96.42041016 C78.58371744 93.36716087 78 92.26170839 78 88.375 C79 85.125 79 85.125 81.0625 83.921875 C82.0215625 83.52742188 82.0215625 83.52742188 83 83.125 C88.56198848 89.75476277 93.52352824 96.65547132 98.31762695 103.85351562 C100.61026982 107.56194934 100.61026982 107.56194934 104 110.125 C104.38837844 98.30276022 102.1155256 90.89250343 95.43554688 81.20849609 C93.2639105 78.05666874 91.15973327 74.86302433 89.07739258 71.65161133 C88.00593722 70.00080122 86.91782017 68.36065481 85.8112793 66.7331543 C82.65684562 61.91412264 81.3316949 58.90161421 82 53.125 C83.32 52.795 84.64 52.465 86 52.125 C92.39187384 58.94017674 97.66479905 66.48181473 103 74.125 C103.66 73.795 104.32 73.465 105 73.125 C105.50158682 59.51945738 95.32513113 47.8646409 88.00390625 37.109375 C85.26312921 33.02759399 84.61256719 31.06476835 85 26.125 C86.5 23.25 86.5 23.25 88 21.125 C90.89850888 21.46262851 91.85997036 21.96509519 93.81640625 24.19921875 C94.39261719 25.06160156 94.96882813 25.92398438 95.5625 26.8125 C96.16320312 27.71097656 96.76390625 28.60945313 97.3828125 29.53515625 C99.13545236 32.34192009 100.65000102 35.10735521 102 38.125 C102.66 38.125 103.32 38.125 104 38.125 C103.71722382 35.22804831 103.42412587 32.3327705 103.125 29.4375 C103.04636719 28.62087891 102.96773438 27.80425781 102.88671875 26.96289062 C102.32899268 20.78264886 102.32899268 20.78264886 100 15.125 C96.2932296 13.27034479 93.14465332 12.84175074 89.0300293 12.73022461 C87.84656418 12.69356186 86.66309906 12.65689911 85.44377136 12.61912537 C84.166819 12.58883743 82.88986664 12.5585495 81.57421875 12.52734375 C80.2263598 12.48860677 78.8785255 12.44900353 77.53071594 12.40858459 C73.97106483 12.30395336 70.41121182 12.21011021 66.85119629 12.11883545 C61.23978924 11.97273309 55.62886429 11.80837541 50.01784134 11.64832115 C47.94929165 11.58984581 45.88070306 11.53294511 43.81210327 11.47627258 C35.51290606 11.24595977 27.2198198 10.94198099 18.92578125 10.5703125 C10.10852886 10.17833905 1.32742917 9.9972974 -7.5 10.0625 C-8.7271875 10.06701172 -9.954375 10.07152344 -11.21875 10.07617188 C-14.14589774 10.08760605 -17.07290443 10.1047877 -20 10.125 Z " fill="currentColor" transform="translate(40,185.875)"/>
<path d="M0 0 C2.48907731 1.93131151 4.84844836 3.94112872 7.1875 6.05078125 C7.87199219 6.64246094 8.55648437 7.23414062 9.26171875 7.84375 C18.57317869 16.42346456 25.16016162 28.14249443 29.1875 40.05078125 C29.50589844 40.96085937 29.82429687 41.8709375 30.15234375 42.80859375 C36.30886984 64.08690972 32.64973112 87.30686445 22.265625 106.48046875 C19.6703922 111.0545066 16.71568801 115.1494975 13.1875 119.05078125 C12.39279297 119.96537109 12.39279297 119.96537109 11.58203125 120.8984375 C2.83553653 130.35129997 -8.76624765 136.21732856 -21.60449219 137.40014648 C-25.62010277 137.51458488 -29.6097992 137.50751984 -33.625 137.42578125 C-35.0518339 137.4093642 -36.47867328 137.39341705 -37.90551758 137.37792969 C-59.44046814 137.07036033 -80.40055967 134.49346413 -96.8828125 119.10546875 C-108.48377875 106.75302291 -115.09617073 92.10012151 -119.8125 76.05078125 C-120.13347656 75.02855469 -120.45445313 74.00632812 -120.78515625 72.953125 C-124.56670617 59.32195668 -124.9929093 42.96995459 -118.8125 30.05078125 C-118.38839844 29.13425781 -117.96429688 28.21773437 -117.52734375 27.2734375 C-109.20401585 10.74270549 -95.50168631 -2.69132498 -77.81787109 -8.61767578 C-51.76871876 -16.55114079 -22.89223456 -15.86559034 0 0 Z M-96.8125 17.05078125 C-107.59928449 32.78071033 -112.23098578 50.00302751 -108.75 68.98828125 C-106.39188015 78.86153071 -102.39064204 89.33602927 -94.0859375 95.66796875 C-83.11085142 102.34353657 -67.33717742 107.33568948 -54.4375 107.11328125 C-53.24125 107.09265625 -52.045 107.07203125 -50.8125 107.05078125 C-51.90688468 103.66813771 -53.02882366 101.80870477 -55.4375 99.11328125 C-57.8125 96.05078125 -57.8125 96.05078125 -58.375 92.86328125 C-57.8125 90.05078125 -57.8125 90.05078125 -56.0625 88.11328125 C-53.8125 87.05078125 -53.8125 87.05078125 -51.83300781 87.25952148 C-49.2671617 88.26434353 -48.63828434 89.30243111 -47.234375 91.6484375 C-46.79609375 92.36708984 -46.3578125 93.08574219 -45.90625 93.82617188 C-45.4628125 94.58091797 -45.019375 95.33566406 -44.5625 96.11328125 C-44.10359375 96.87189453 -43.6446875 97.63050781 -43.171875 98.41210938 C-42.04087849 100.28532235 -40.92179478 102.16466318 -39.8125 104.05078125 C-38.22840006 103.93590377 -36.64521037 103.80843617 -35.0625 103.67578125 C-34.18078125 103.60617188 -33.2990625 103.5365625 -32.390625 103.46484375 C-29.82183618 103.0522807 -28.05408985 102.33917168 -25.8125 101.05078125 C-29.74341566 94.96622563 -33.60802059 89.19466509 -38.375 83.73828125 C-41.7311982 79.6885996 -41.7311982 79.6885996 -42.08984375 76.875 C-41.8125 74.92578125 -41.8125 74.92578125 -40.8125 72.05078125 C-38.1171875 71.69140625 -38.1171875 71.69140625 -34.8125 72.05078125 C-32.84107224 73.9665888 -31.47146494 75.57681373 -29.9375 77.80078125 C-29.51549316 78.38045654 -29.09348633 78.96013184 -28.65869141 79.55737305 C-27.3505082 81.37167223 -26.07677549 83.20566203 -24.8125 85.05078125 C-24.40580078 85.64262207 -23.99910156 86.23446289 -23.58007812 86.84423828 C-21.27716689 90.2163583 -19.02591858 93.61936418 -16.8125 97.05078125 C-13.69052522 95.74182405 -13.69052522 95.74182405 -11.8125 93.05078125 C-13.05306795 90.83787625 -14.33826534 88.77615329 -15.75 86.67578125 C-16.15661865 86.0530835 -16.5632373 85.43038574 -16.98217773 84.78881836 C-18.99600742 81.71754275 -21.05599353 78.68832532 -23.1953125 75.703125 C-23.91460937 74.68347656 -24.63390625 73.66382812 -25.375 72.61328125 C-26.03628906 71.70707031 -26.69757813 70.80085938 -27.37890625 69.8671875 C-29.16448254 66.35928422 -29.21550738 63.93725477 -28.8125 60.05078125 C-26.8125 58.05078125 -26.8125 58.05078125 -24.953125 58.04296875 C-21.7298903 59.56047706 -20.35083606 62.22753968 -18.5625 65.17578125 C-18.17843994 65.79018066 -17.79437988 66.40458008 -17.39868164 67.03759766 C-13.19931283 73.8567325 -9.47193199 80.93134135 -5.8125 88.05078125 C-3.81266466 87.25960221 -3.81266466 87.25960221 -1.8125 86.05078125 C-1.3175 84.56578125 -1.3175 84.56578125 -0.8125 83.05078125 C-2.16088999 80.51762612 -3.5554085 78.19175638 -5.125 75.80078125 C-5.57343262 75.09711426 -6.02186523 74.39344727 -6.48388672 73.66845703 C-8.82301114 70.02013941 -11.22952374 66.42676803 -13.70703125 62.87109375 C-14.16489014 62.20754883 -14.62274902 61.54400391 -15.09448242 60.86035156 C-15.9708903 59.59791637 -16.8599025 58.34411223 -17.76293945 57.10058594 C-20.43327804 53.26079912 -21.38049777 50.7136467 -20.8125 46.05078125 C-20.4825 45.06078125 -20.1525 44.07078125 -19.8125 43.05078125 C-16.71354366 43.36084216 -15.21320983 43.62731697 -13.03686523 45.92724609 C-12.50778564 46.73887207 -11.97870605 47.55049805 -11.43359375 48.38671875 C-10.54196533 49.74361816 -10.54196533 49.74361816 -9.63232422 51.12792969 C-6.638861 55.93578341 -3.72180509 60.77966871 -0.875 65.67578125 C-0.28654297 66.67996094 0.30191406 67.68414062 0.90820312 68.71875 C2.33841943 71.16058272 3.76477448 73.60457915 5.1875 76.05078125 C7.622025 73.61625625 7.92715787 72.45487746 8.1875 69.05078125 C4.962544 60.91990763 -1.14100033 53.70426351 -6.4597168 46.8347168 C-15.8125 34.71836676 -15.8125 34.71836676 -15.8125 29.73828125 C-14.80368125 27.02708087 -14.26317988 25.59380192 -11.8125 24.05078125 C-9.14487156 24.31768149 -8.02580113 24.83781753 -6.11474609 26.74584961 C-1.81304457 32.48716692 1.96614839 38.40843664 5.5625 44.61328125 C6.60875735 46.40813194 7.6580548 48.20121528 8.7109375 49.9921875 C9.16388184 50.77279541 9.61682617 51.55340332 10.08349609 52.35766602 C10.44781738 52.91639404 10.81213867 53.47512207 11.1875 54.05078125 C11.5175 54.05078125 11.8475 54.05078125 12.1875 54.05078125 C11.70841309 48.06219486 10.45684766 43.61012555 7.6875 38.30078125 C7.15455322 37.2653418 7.15455322 37.2653418 6.61083984 36.20898438 C-1.52484898 20.85380389 -12.03901636 10.08106847 -28.77099609 4.65283203 C-51.48909527 -2.04686093 -80.07884465 -2.15523399 -96.8125 17.05078125 Z " fill="currentColor" transform="translate(122.8125,30.94921875)"/>
<path d="M0 0 C13.82482145 2.68470006 27.78686535 7.56339909 36.609375 19.10546875 C43.73156982 30.06410356 48.17570857 43.1579675 48.1875 56.1875 C48.19974609 56.91130859 48.21199219 57.63511719 48.22460938 58.38085938 C48.22984064 60.25539471 48.12248796 62.1294635 48 64 C46 66 46 66 43.90625 66.23046875 C42.71515625 66.20919922 42.71515625 66.20919922 41.5 66.1875 C40.7059375 66.18105469 39.911875 66.17460937 39.09375 66.16796875 C37 66 37 66 35 65 C34.48510742 62.96557617 34.48510742 62.96557617 34.10546875 60.29296875 C33.95746826 59.31900146 33.80946777 58.34503418 33.65698242 57.34155273 C33.50205322 56.30071533 33.34712402 55.25987793 33.1875 54.1875 C31.0106863 39.05717466 31.0106863 39.05717466 22.8125 26.5625 C13.86098686 20.20732957 3.6786483 17.08625664 -6.69335938 13.86328125 C-8.23540039 13.37021484 -8.23540039 13.37021484 -9.80859375 12.8671875 C-10.73470459 12.57956543 -11.66081543 12.29194336 -12.61499023 11.99560547 C-15.08828705 10.9631452 -16.38127476 10.12072453 -18 8 C-18.38158417 4.94732665 -18.61084954 2.93793564 -16.8984375 0.30859375 C-12.47725368 -2.73893008 -5.14551341 -0.76524877 0 0 Z " fill="currentColor" transform="translate(383,232)"/>
<path d="M0 0 C1.29550781 0.05800781 2.59101562 0.11601562 3.92578125 0.17578125 C8.13770971 0.74874348 10.92383214 1.75557924 14.6875 3.6875 C16.05702673 6.42655345 15.81371361 8.65837332 15.6875 11.6875 C14.6875 13.6875 14.6875 13.6875 13.0234375 14.3125 C10.08214636 14.78468052 7.29152545 14.74203594 4.3125 14.6875 C-2.92083143 14.63436955 -10.12190825 14.83473582 -17.3125 15.6875 C-19.37407518 17.74907518 -18.66340097 22.04020888 -18.77734375 24.88671875 C-18.85591617 26.58790004 -18.934699 28.28907163 -19.01367188 29.99023438 C-19.13298925 32.67818288 -19.24963187 35.36619765 -19.36206055 38.05444336 C-19.47221064 40.6447626 -19.59294055 43.2344297 -19.71484375 45.82421875 C-19.74513168 46.6213176 -19.77541962 47.41841644 -19.80662537 48.2396698 C-20.02360959 52.72052358 -20.64956932 56.46206189 -22.3125 60.6875 C-23.76992463 60.76846803 -25.22862807 60.82667774 -26.6875 60.875 C-27.49960937 60.90980469 -28.31171875 60.94460938 -29.1484375 60.98046875 C-29.86257812 60.88378906 -30.57671875 60.78710938 -31.3125 60.6875 C-35.21194053 54.83833921 -34.50654096 46.9799252 -34.5 40.125 C-34.49919434 39.23039062 -34.49838867 38.33578125 -34.49755859 37.4140625 C-34.43494594 30.31305113 -34.0276569 23.26317056 -33.4375 16.1875 C-33.35910889 15.21482178 -33.28071777 14.24214355 -33.19995117 13.23999023 C-32.7863763 8.7390426 -32.37931214 4.78638794 -30.3125 0.6875 C-20.18137451 -0.56768369 -10.1790852 -0.47821206 0 0 Z " fill="currentColor" transform="translate(60.3125,214.3125)"/>
<path d="M0 0 C5.32017615 -0.09906509 10.63981247 -0.17156072 15.96069336 -0.21972656 C17.7697078 -0.23981053 19.57865757 -0.26708341 21.38745117 -0.30175781 C23.99153621 -0.35041892 26.59476115 -0.37300051 29.19921875 -0.390625 C30.40731453 -0.42159271 30.40731453 -0.42159271 31.63981628 -0.45318604 C35.62341771 -0.45476879 37.53094047 -0.29827572 40.97851562 1.89404297 C46.83720969 7.99755686 46.30897156 16.94230428 46.203125 24.8984375 C46.03704101 27.43441227 45.73836819 29.58243965 45 32 C43.39773045 32.22245393 41.79303233 32.42746669 40.1875 32.625 C39.29417969 32.74101562 38.40085937 32.85703125 37.48046875 32.9765625 C35 33 35 33 32 31 C31.5234375 28.06640625 31.5234375 28.06640625 31.375 24.5625 C31.15769213 19.6960848 31.15769213 19.6960848 30 15 C29.10168457 14.98018066 28.20336914 14.96036133 27.27783203 14.93994141 C23.94909922 14.86190739 20.62082744 14.77521886 17.29248047 14.68261719 C15.8511626 14.64430326 14.40974832 14.60945457 12.96826172 14.578125 C10.89776114 14.53252554 8.82792567 14.47452556 6.7578125 14.4140625 C5.5114502 14.3826416 4.26508789 14.3512207 2.98095703 14.31884766 C0 14 0 14 -2 12 C-2.31712624 7.08454331 -2.28805642 4.35230594 0 0 Z " fill="currentColor" transform="translate(221,214)"/>
<path d="M0 0 C0.875 2.5 0.875 2.5 1 6 C-0.67894118 8.92798047 -2.83514726 11.41982779 -5 14 C-9.84773073 20.59830017 -11.66138248 27.00793465 -11.60546875 35.16015625 C-10.64128475 39.68249022 -7.75794622 42.33968158 -4.7265625 45.703125 C-2.90140692 48.13116002 -2.45736263 49.03643984 -2.8125 52 C-4 55 -4 55 -7 57 C-10.375 57.5 -10.375 57.5 -14 57 C-19.27532152 52.32414683 -21.52459703 46.24532553 -22.30322266 39.29223633 C-22.43731726 36.39614453 -22.46736191 33.52399394 -22.4375 30.625 C-22.43065186 29.60929932 -22.42380371 28.59359863 -22.41674805 27.54711914 C-22.22876935 18.79378893 -20.91826672 11.64334053 -15.625 4.5 C-10.45010242 -0.42847388 -7.01870853 -1.54411588 0 0 Z " fill="currentColor" transform="translate(50,59)"/>
</svg>
